<svg version="1.0" xmlns="http://www.w3.org/2000/svg"
 width="500.000000pt" height="500.000000pt" viewBox="0 0 500.000000 500.000000"
 preserveAspectRatio="xMidYMid meet">
<g transform="translate(0.000000,500.000000) scale(0.100000,-0.100000)"
 stroke="none" fill-opacity='0.5'>
<path d="M2968 4626 c-41 -30 -50 -121 -18 -173 16 -27 26 -33 52 -33 39 1 59
15 76 53 18 41 15 98 -8 135 -16 26 -26 32 -52 32 -18 0 -41 -6 -50 -14z m74
-23 c20 -23 15 -110 -7 -132 -14 -14 -18 -14 -43 -1 -22 13 -28 24 -30 59 -5
73 42 117 80 74z"/>
<path d="M2593 4618 c-24 -12 -31 -46 -12 -65 8 -8 8 -17 0 -31 -15 -28 -14
-64 2 -86 21 -28 105 -26 129 3 22 28 23 60 4 87 -9 11 -12 30 -9 48 5 21 1
33 -12 43 -22 15 -71 16 -102 1z m93 -19 c11 -18 -17 -49 -45 -49 -31 0 -57
23 -46 40 16 26 77 31 91 9z m4 -94 c14 -17 6 -50 -10 -40 -5 3 -10 1 -10 -5
0 -7 -13 -10 -32 -8 -33 3 -46 23 -34 54 7 19 70 18 86 -1z"/>
<path d="M2278 4583 c-24 -6 -23 -19 3 -26 24 -6 17 -27 -10 -27 -29 0 -51
-33 -51 -77 0 -71 36 -96 115 -78 59 13 62 15 41 31 -11 8 -21 20 -23 27 -2 6
-9 40 -17 74 -7 34 -17 66 -20 72 -7 11 -10 12 -38 4z m21 -97 c7 -8 13 -27
14 -43 2 -24 -2 -28 -26 -29 -35 -1 -48 21 -35 58 11 31 29 36 47 14z"/>
<path d="M1897 4484 c-13 -13 -7 -24 14 -24 11 0 19 5 17 12 -5 14 -22 21 -31
12z"/>
<path d="M1888 4428 c-38 -13 -36 -31 2 -23 26 6 30 3 35 -22 4 -15 8 -34 10
-40 3 -7 -7 -24 -21 -37 -18 -16 -23 -26 -14 -31 17 -10 128 17 135 33 8 22
-4 33 -31 28 -26 -5 -26 -6 -54 72 -13 34 -19 36 -62 20z"/>
<path d="M1618 4333 c-18 -5 -26 -33 -9 -33 5 0 11 -16 13 -35 2 -19 1 -35 -2
-35 -13 0 -50 47 -50 63 0 15 -3 16 -32 4 -34 -14 -56 -46 -22 -33 15 6 30 -6
70 -51 29 -32 56 -54 61 -50 11 11 8 171 -3 173 -5 1 -17 0 -26 -3z"/>
<path d="M1233 4134 c-35 -27 -43 -61 -17 -71 19 -7 35 7 37 35 1 21 27 41 27
21 0 -6 5 -7 12 -3 20 13 -4 -19 -35 -45 -41 -34 -35 -75 12 -79 22 -2 40 3
55 15 11 11 33 24 49 31 15 6 27 15 27 19 -1 18 -19 35 -33 30 -10 -4 -19 6
-30 34 -13 33 -20 39 -44 39 -15 0 -43 -12 -60 -26z m91 -63 c10 -15 -3 -37
-30 -51 -20 -11 -27 -11 -37 -1 -9 10 -6 17 18 37 33 26 41 29 49 15z"/>
<path d="M914 3989 c-19 -22 -19 -22 9 -15 32 8 35 -6 7 -36 -26 -28 -25 -57
3 -99 32 -48 73 -51 127 -8 44 36 50 49 21 49 -11 0 -40 26 -72 65 -29 36 -58
65 -64 65 -7 0 -20 -10 -31 -21z m90 -88 c25 -27 17 -55 -16 -59 -31 -4 -50
22 -41 56 7 27 34 28 57 3z"/>
<path d="M620 3734 c0 -9 7 -14 17 -12 25 5 28 28 4 28 -12 0 -21 -6 -21 -16z"/>
<path d="M2706 3724 c-6 -21 -76 -339 -100 -454 -8 -41 -24 -115 -35 -165 -11
-49 -83 -385 -161 -745 -78 -360 -150 -695 -161 -745 -44 -200 -45 -189 8
-200 28 -6 33 -3 38 17 3 13 34 160 70 328 36 168 77 355 90 415 13 61 49 227
80 370 31 143 62 289 70 325 19 87 85 388 139 640 24 113 41 208 37 212 -4 4
-21 10 -38 14 -25 5 -32 2 -37 -12z"/>
<path d="M638 3686 c-21 -29 -11 -42 14 -20 21 19 40 9 63 -35 11 -22 11 -29
-1 -45 -13 -19 -11 -36 5 -36 5 0 29 17 55 38 60 48 63 93 4 61 -17 -9 -26 -6
-57 25 -43 42 -60 44 -83 12z"/>
<path d="M1499 2910 c-178 -182 -323 -333 -322 -336 0 -3 148 -154 328 -336
l327 -330 32 31 31 31 -303 303 -302 302 302 302 302 303 -29 30 c-16 16 -32
30 -36 30 -3 0 -152 -149 -330 -330z"/>
<path d="M3135 3210 l-29 -31 302 -302 302 -302 -302 -302 -303 -303 30 -30
30 -30 332 333 333 332 -328 327 c-180 181 -330 330 -333 333 -3 3 -18 -9 -34
-25z"/>
<path d="M4312 1795 c-37 -41 -42 -79 -11 -95 21 -12 27 -9 77 38 15 14 32 7
32 -13 0 -21 -29 -45 -56 -45 -30 0 -30 -10 0 -32 24 -17 25 -17 60 22 20 22
36 45 36 51 0 19 -21 49 -34 49 -7 0 -23 14 -36 30 -13 17 -26 30 -29 30 -3 0
-21 -16 -39 -35z m58 -23 c0 -16 -48 -54 -59 -47 -17 10 -13 33 7 44 21 13 52
14 52 3z"/>
<path d="M4096 1565 c-9 -9 -16 -23 -16 -30 0 -7 -10 -15 -21 -17 -24 -3 -48
-33 -36 -44 3 -4 14 -1 23 7 15 12 20 9 46 -21 22 -27 27 -41 22 -62 -4 -20
-2 -28 8 -28 17 0 78 61 78 78 0 14 -26 16 -35 2 -10 -15 -32 0 -48 32 -19 40
-12 57 21 55 21 -2 27 3 27 18 0 26 -46 33 -69 10z"/>
<path d="M3796 1309 c-54 -43 -15 -138 57 -139 49 0 101 74 60 87 -6 2 -14 -5
-18 -16 -8 -26 -38 -43 -60 -35 -14 6 -11 12 19 39 40 36 45 59 17 75 -29 15
-45 12 -75 -11z m74 -15 c0 -2 -14 -12 -31 -25 -24 -16 -33 -19 -42 -10 -9 10
-8 15 5 25 13 10 68 18 68 10z"/>
<path d="M3516 1117 c-13 -13 -27 -22 -32 -20 -6 2 -19 -3 -29 -12 -19 -14
-19 -14 7 -15 22 0 32 -10 58 -57 24 -46 29 -63 21 -80 -14 -32 -2 -35 40 -11
45 25 50 44 12 43 -37 0 -39 18 -3 32 26 10 30 16 30 51 0 33 -6 45 -31 66
-37 32 -44 32 -73 3z m81 -56 c8 -32 -21 -55 -49 -40 -26 14 -41 55 -28 80 11
19 12 19 41 2 16 -10 33 -29 36 -42z"/>
<path d="M3204 969 c-35 -13 -47 -36 -41 -81 10 -75 84 -105 126 -52 26 33 26
60 2 100 -20 33 -54 46 -87 33z m54 -42 c32 -34 21 -72 -21 -72 -40 0 -63 55
-35 83 18 18 32 15 56 -11z"/>
<path d="M2828 897 c-38 -15 -35 -29 4 -25 31 3 33 1 44 -47 6 -27 14 -60 18
-72 6 -18 1 -25 -23 -38 -68 -35 -15 -47 74 -17 60 20 69 47 15 47 -33 0 -36
3 -48 45 -36 122 -38 125 -84 107z"/>
<path d="M1420 811 c-12 -8 -9 -12 13 -20 24 -9 27 -16 27 -55 0 -60 -15 -96
-39 -96 -23 0 -33 -11 -23 -27 9 -14 103 -26 141 -18 31 7 45 30 56 97 7 44
-15 104 -42 111 -42 12 -119 17 -133 8z m136 -60 c16 -21 5 -83 -19 -103 -21
-19 -57 -24 -57 -9 0 10 19 105 26 128 4 15 34 6 50 -16z"/>
<path d="M2522 759 c-57 -21 -54 -121 5 -148 35 -16 49 -14 80 13 23 20 26 27
15 38 -11 11 -16 10 -27 -5 -9 -12 -23 -17 -41 -15 -44 5 -38 24 12 38 52 15
64 32 40 59 -20 22 -55 31 -84 20z m58 -34 c17 -10 20 -14 9 -15 -9 0 -31 -3
-49 -6 -31 -7 -32 -6 -21 15 14 24 26 26 61 6z"/>
<path d="M1835 712 c-37 -8 -55 -33 -55 -78 0 -34 5 -47 26 -63 42 -33 104
-21 104 19 0 21 -15 27 -25 10 -6 -9 -65 -15 -65 -6 0 2 -3 11 -6 20 -5 12 5
15 48 18 42 2 54 7 56 21 7 35 -39 68 -83 59z m49 -45 c17 -16 15 -17 -26 -13
-24 3 -45 5 -47 5 -2 1 2 8 9 16 15 18 42 15 64 -8z"/>
<path d="M2115 712 c-11 -11 -4 -24 9 -19 9 4 18 -5 26 -26 22 -58 45 -100 57
-104 14 -5 33 35 39 81 2 16 11 37 19 46 22 25 19 30 -20 30 -36 0 -43 -8 -24
-27 8 -8 8 -17 0 -31 -6 -10 -7 -22 -4 -26 3 -3 2 -6 -4 -6 -13 0 -35 51 -31
71 2 10 -7 14 -29 15 -18 1 -35 -1 -38 -4z"/>
</g>
</svg>
